<mxfile host="app.diagrams.net" agent="Mozilla/5.0 (Windows NT 10.0; Win64; x64) AppleWebKit/537.36 (KHTML, like Gecko) Chrome/128.0.0.0 Safari/537.36" version="24.7.14">
  <diagram id="-1CgWh2PYSuFyLbN58qC" name="Page-1">
    <mxGraphModel dx="1313" dy="653" grid="1" gridSize="10" guides="1" tooltips="1" connect="1" arrows="1" fold="1" page="1" pageScale="1" pageWidth="850" pageHeight="1100" math="0" shadow="0">
      <root>
        <mxCell id="0" />
        <mxCell id="1" parent="0" />
        <mxCell id="32" value="" style="rounded=0;whiteSpace=wrap;html=1;fontSize=14;fillColor=#dae8fc;strokeColor=#6c8ebf;" parent="1" vertex="1">
          <mxGeometry x="160" y="120" width="240" height="520" as="geometry" />
        </mxCell>
        <mxCell id="48" value="Key partners" style="text;strokeColor=none;fillColor=none;html=1;fontSize=18;fontStyle=1;verticalAlign=middle;align=center;" parent="1" vertex="1">
          <mxGeometry x="170" y="120" width="100" height="40" as="geometry" />
        </mxCell>
        <mxCell id="49" value="" style="rounded=0;whiteSpace=wrap;html=1;fontSize=14;fillColor=#dae8fc;strokeColor=#6c8ebf;" parent="1" vertex="1">
          <mxGeometry x="400" y="120" width="240" height="260" as="geometry" />
        </mxCell>
        <mxCell id="50" value="" style="rounded=0;whiteSpace=wrap;html=1;fontSize=14;fillColor=#dae8fc;strokeColor=#6c8ebf;" parent="1" vertex="1">
          <mxGeometry x="400" y="380" width="240" height="260" as="geometry" />
        </mxCell>
        <mxCell id="51" value="" style="rounded=0;whiteSpace=wrap;html=1;fontSize=14;fillColor=#ffe6cc;strokeColor=#d79b00;" parent="1" vertex="1">
          <mxGeometry x="640" y="120" width="240" height="520" as="geometry" />
        </mxCell>
        <mxCell id="52" value="" style="rounded=0;whiteSpace=wrap;html=1;fontSize=14;fillColor=#e1d5e7;strokeColor=#9673a6;" parent="1" vertex="1">
          <mxGeometry x="880" y="120" width="240" height="260" as="geometry" />
        </mxCell>
        <mxCell id="53" value="" style="rounded=0;whiteSpace=wrap;html=1;fontSize=14;fillColor=#e1d5e7;strokeColor=#9673a6;" parent="1" vertex="1">
          <mxGeometry x="880" y="380" width="240" height="260" as="geometry" />
        </mxCell>
        <mxCell id="54" value="" style="rounded=0;whiteSpace=wrap;html=1;fontSize=14;fillColor=#e1d5e7;strokeColor=#9673a6;" parent="1" vertex="1">
          <mxGeometry x="1120" y="120" width="240" height="520" as="geometry" />
        </mxCell>
        <mxCell id="56" value="" style="rounded=0;whiteSpace=wrap;html=1;fontSize=14;fillColor=#f8cecc;strokeColor=#b85450;" parent="1" vertex="1">
          <mxGeometry x="160" y="640" width="600" height="200" as="geometry" />
        </mxCell>
        <mxCell id="57" value="" style="rounded=0;whiteSpace=wrap;html=1;fontSize=14;fillColor=#f8cecc;strokeColor=#b85450;" parent="1" vertex="1">
          <mxGeometry x="760" y="640" width="600" height="200" as="geometry" />
        </mxCell>
        <mxCell id="58" value="Cost structure" style="text;strokeColor=none;fillColor=none;html=1;fontSize=18;fontStyle=1;verticalAlign=middle;align=center;" parent="1" vertex="1">
          <mxGeometry x="170" y="640" width="130" height="40" as="geometry" />
        </mxCell>
        <mxCell id="59" value="Key activities" style="text;strokeColor=none;fillColor=none;html=1;fontSize=18;fontStyle=1;verticalAlign=middle;align=center;" parent="1" vertex="1">
          <mxGeometry x="420" y="120" width="100" height="40" as="geometry" />
        </mxCell>
        <mxCell id="60" value="Key resources" style="text;strokeColor=none;fillColor=none;html=1;fontSize=18;fontStyle=1;verticalAlign=middle;align=center;" parent="1" vertex="1">
          <mxGeometry x="425" y="380" width="100" height="40" as="geometry" />
        </mxCell>
        <mxCell id="61" value="Value propositions" style="text;strokeColor=none;fillColor=none;html=1;fontSize=18;fontStyle=1;verticalAlign=middle;align=center;" parent="1" vertex="1">
          <mxGeometry x="670" y="120" width="130" height="40" as="geometry" />
        </mxCell>
        <mxCell id="62" value="Customer segments" style="text;strokeColor=none;fillColor=none;html=1;fontSize=18;fontStyle=1;verticalAlign=middle;align=center;" parent="1" vertex="1">
          <mxGeometry x="1150" y="120" width="130" height="40" as="geometry" />
        </mxCell>
        <mxCell id="63" value="Customer relationships" style="text;strokeColor=none;fillColor=none;html=1;fontSize=18;fontStyle=1;verticalAlign=middle;align=center;" parent="1" vertex="1">
          <mxGeometry x="907.5" y="120" width="160" height="40" as="geometry" />
        </mxCell>
        <mxCell id="64" value="Channels" style="text;strokeColor=none;fillColor=none;html=1;fontSize=18;fontStyle=1;verticalAlign=middle;align=center;" parent="1" vertex="1">
          <mxGeometry x="880" y="380" width="100" height="40" as="geometry" />
        </mxCell>
        <mxCell id="65" value="Revenue streams" style="text;strokeColor=none;fillColor=none;html=1;fontSize=18;fontStyle=1;verticalAlign=middle;align=center;" parent="1" vertex="1">
          <mxGeometry x="770" y="640" width="150" height="40" as="geometry" />
        </mxCell>
        <mxCell id="66" value="&lt;ul style=&quot;font-size: 18px;&quot;&gt;&lt;li style=&quot;font-size: 18px;&quot;&gt;hardware manufacturers&lt;/li&gt;&lt;li style=&quot;font-size: 18px;&quot;&gt;agricultural cooperatives&lt;/li&gt;&lt;li style=&quot;font-size: 18px;&quot;&gt;local distributors&lt;/li&gt;&lt;li style=&quot;font-size: 18px;&quot;&gt;agricultural consultants&lt;/li&gt;&lt;li style=&quot;font-size: 18px;&quot;&gt;weather and logistics services&amp;nbsp;&lt;/li&gt;&lt;/ul&gt;" style="text;html=1;strokeColor=none;fillColor=none;align=left;verticalAlign=middle;whiteSpace=wrap;rounded=0;fontSize=18;" parent="1" vertex="1">
          <mxGeometry x="150" y="200" width="240" height="380" as="geometry" />
        </mxCell>
        <mxCell id="67" value="&lt;ul style=&quot;font-size: 18px;&quot;&gt;&lt;li style=&quot;font-size: 18px;&quot;&gt;enhanced precision farming through real-time data integration&lt;/li&gt;&lt;li style=&quot;font-size: 18px;&quot;&gt;reduction in enfironmental impact&lt;/li&gt;&lt;li style=&quot;font-size: 18px;&quot;&gt;increased productivity for farmers&lt;/li&gt;&lt;li style=&quot;font-size: 18px;&quot;&gt;adaptability to various farm sizes and types&lt;/li&gt;&lt;li style=&quot;font-size: 18px;&quot;&gt;modular design for future-proofing farms&lt;/li&gt;&lt;/ul&gt;" style="text;html=1;strokeColor=none;fillColor=none;align=left;verticalAlign=middle;whiteSpace=wrap;rounded=0;fontSize=18;" parent="1" vertex="1">
          <mxGeometry x="630" y="160" width="240" height="460" as="geometry" />
        </mxCell>
        <mxCell id="68" value="&lt;ul style=&quot;font-size: 18px;&quot;&gt;&lt;li style=&quot;font-size: 18px;&quot;&gt;&lt;font style=&quot;font-size: 18px;&quot;&gt;small to large-scale farmers&lt;/font&gt;&lt;/li&gt;&lt;li style=&quot;font-size: 18px;&quot;&gt;&lt;font style=&quot;font-size: 18px;&quot;&gt;agribusiness companies&lt;/font&gt;&lt;/li&gt;&lt;li style=&quot;font-size: 18px;&quot;&gt;&lt;font style=&quot;font-size: 18px;&quot;&gt;environmentally conscious entities&lt;/font&gt;&lt;/li&gt;&lt;li style=&quot;font-size: 18px;&quot;&gt;&lt;font style=&quot;font-size: 18px;&quot;&gt;agricultural consultants&lt;/font&gt;&lt;/li&gt;&lt;/ul&gt;" style="text;html=1;strokeColor=none;fillColor=none;align=left;verticalAlign=middle;whiteSpace=wrap;rounded=0;fontSize=18;" parent="1" vertex="1">
          <mxGeometry x="1110" y="170" width="240" height="450" as="geometry" />
        </mxCell>
        <mxCell id="70" value="&lt;ul style=&quot;font-size: 18px;&quot;&gt;&lt;li style=&quot;font-size: 18px;&quot;&gt;product sales (installation fees)&lt;/li&gt;&lt;li style=&quot;font-size: 18px;&quot;&gt;maitenance contracts (recurring revenue)&lt;/li&gt;&lt;li style=&quot;font-size: 18px;&quot;&gt;subscription services for advanced functionalities&lt;/li&gt;&lt;li style=&quot;font-size: 18px;&quot;&gt;additional services (future upgrades)&lt;/li&gt;&lt;/ul&gt;" style="text;html=1;strokeColor=none;fillColor=none;align=left;verticalAlign=middle;whiteSpace=wrap;rounded=0;fontSize=18;" parent="1" vertex="1">
          <mxGeometry x="770" y="670" width="572.5" height="160" as="geometry" />
        </mxCell>
        <mxCell id="71" value="&lt;ul style=&quot;font-size: 18px;&quot;&gt;&lt;li style=&quot;font-size: 18px;&quot;&gt;&lt;span style=&quot;background-color: initial; font-size: 18px;&quot;&gt;development of AgriSynapse system&lt;/span&gt;&lt;/li&gt;&lt;li style=&quot;font-size: 18px;&quot;&gt;&lt;span style=&quot;background-color: initial; font-size: 18px;&quot;&gt;integration with third-party services&lt;/span&gt;&lt;/li&gt;&lt;li style=&quot;font-size: 18px;&quot;&gt;&lt;span style=&quot;background-color: initial; font-size: 18px;&quot;&gt;customer support and training&lt;/span&gt;&lt;/li&gt;&lt;li style=&quot;font-size: 18px;&quot;&gt;&lt;span style=&quot;background-color: initial; font-size: 18px;&quot;&gt;continuous R&amp;amp;D for system upgrades&lt;/span&gt;&lt;/li&gt;&lt;li style=&quot;font-size: 18px;&quot;&gt;&lt;span style=&quot;background-color: initial; font-size: 18px;&quot;&gt;data analytics and reporting&lt;/span&gt;&lt;/li&gt;&lt;/ul&gt;" style="text;html=1;strokeColor=none;fillColor=none;align=left;verticalAlign=middle;whiteSpace=wrap;rounded=0;fontSize=18;" parent="1" vertex="1">
          <mxGeometry x="380" y="150" width="260" height="220" as="geometry" />
        </mxCell>
        <mxCell id="72" value="&lt;ul style=&quot;font-size: 18px;&quot;&gt;&lt;li style=&quot;font-size: 18px;&quot;&gt;personalized support and training&lt;/li&gt;&lt;li style=&quot;font-size: 18px;&quot;&gt;maintenance contracts&lt;/li&gt;&lt;li style=&quot;font-size: 18px;&quot;&gt;subscription services for analytics and updates&lt;/li&gt;&lt;li style=&quot;font-size: 18px;&quot;&gt;partnerships for continuous customer feedback&lt;/li&gt;&lt;/ul&gt;" style="text;html=1;strokeColor=none;fillColor=none;align=left;verticalAlign=middle;whiteSpace=wrap;rounded=0;fontSize=18;" parent="1" vertex="1">
          <mxGeometry x="862.5" y="160" width="250" height="210" as="geometry" />
        </mxCell>
        <mxCell id="73" value="&lt;ul style=&quot;font-size: 18px;&quot;&gt;&lt;li style=&quot;font-size: 18px;&quot;&gt;direct sales via website and distributors&lt;/li&gt;&lt;li style=&quot;font-size: 18px;&quot;&gt;agricultural expos and conferences&lt;/li&gt;&lt;li style=&quot;font-size: 18px;&quot;&gt;partnerships with agricultural cooperatives&lt;/li&gt;&lt;/ul&gt;" style="text;html=1;strokeColor=none;fillColor=none;align=left;verticalAlign=middle;whiteSpace=wrap;rounded=0;fontSize=18;" parent="1" vertex="1">
          <mxGeometry x="860" y="420" width="252.5" height="210" as="geometry" />
        </mxCell>
        <mxCell id="74" value="&lt;ul style=&quot;font-size: 18px;&quot;&gt;&lt;li style=&quot;font-size: 18px;&quot;&gt;R&amp;amp;D expenses for system development&lt;/li&gt;&lt;li style=&quot;font-size: 18px;&quot;&gt;prototype hardware procurement costs&lt;/li&gt;&lt;li style=&quot;font-size: 18px;&quot;&gt;installation and training costs&lt;/li&gt;&lt;li style=&quot;font-size: 18px;&quot;&gt;cloud service fees&lt;/li&gt;&lt;li style=&quot;font-size: 18px;&quot;&gt;customer support and maintenance&lt;/li&gt;&lt;/ul&gt;" style="text;html=1;strokeColor=none;fillColor=none;align=left;verticalAlign=middle;whiteSpace=wrap;rounded=0;fontSize=18;" parent="1" vertex="1">
          <mxGeometry x="170" y="670" width="570" height="160" as="geometry" />
        </mxCell>
        <mxCell id="75" value="&lt;ul style=&quot;font-size: 18px;&quot;&gt;&lt;li style=&quot;font-size: 18px;&quot;&gt;AgriSynapse software platform&lt;/li&gt;&lt;li style=&quot;font-size: 18px;&quot;&gt;off-the-shels hardware components&lt;/li&gt;&lt;li style=&quot;font-size: 18px;&quot;&gt;data analytics and ML algorithms&lt;/li&gt;&lt;li style=&quot;font-size: 18px;&quot;&gt;cloud infrastructure&lt;/li&gt;&lt;li style=&quot;font-size: 18px;&quot;&gt;partnerships with hardware and service providers&lt;/li&gt;&lt;/ul&gt;" style="text;html=1;strokeColor=none;fillColor=none;align=left;verticalAlign=middle;whiteSpace=wrap;rounded=0;fontSize=18;" parent="1" vertex="1">
          <mxGeometry x="380" y="440" width="260" height="170" as="geometry" />
        </mxCell>
        <mxCell id="76" value="" style="rounded=1;whiteSpace=wrap;html=1;" parent="1" vertex="1">
          <mxGeometry x="160" y="880" width="360" height="140" as="geometry" />
        </mxCell>
        <mxCell id="77" value="&lt;font style=&quot;font-size: 18px;&quot;&gt;Legend&lt;/font&gt;" style="text;html=1;strokeColor=none;fillColor=none;align=center;verticalAlign=middle;whiteSpace=wrap;rounded=0;" parent="1" vertex="1">
          <mxGeometry x="170" y="890" width="60" height="30" as="geometry" />
        </mxCell>
        <mxCell id="78" value="&lt;font style=&quot;font-size: 18px;&quot;&gt;Feasibility&lt;/font&gt;" style="rounded=0;whiteSpace=wrap;html=1;fontSize=14;fillColor=#dae8fc;strokeColor=#6c8ebf;" parent="1" vertex="1">
          <mxGeometry x="290" y="890" width="210" height="40" as="geometry" />
        </mxCell>
        <mxCell id="79" value="&lt;font style=&quot;font-size: 18px;&quot;&gt;Viability&lt;/font&gt;" style="rounded=0;whiteSpace=wrap;html=1;fontSize=14;fillColor=#f8cecc;strokeColor=#b85450;" parent="1" vertex="1">
          <mxGeometry x="290" y="930" width="210" height="40" as="geometry" />
        </mxCell>
        <mxCell id="80" value="&lt;font style=&quot;font-size: 19px;&quot;&gt;Desirability&lt;/font&gt;" style="rounded=0;whiteSpace=wrap;html=1;fontSize=14;fillColor=#ffe6cc;strokeColor=#d79b00;" parent="1" vertex="1">
          <mxGeometry x="290" y="970" width="210" height="40" as="geometry" />
        </mxCell>
      </root>
    </mxGraphModel>
  </diagram>
</mxfile>
